<?xml version="1.0" encoding="utf-8"?>
<!-- Generator: Adobe Illustrator 16.0.0, SVG Export Plug-In . SVG Version: 6.00 Build 0)  -->
<!DOCTYPE svg PUBLIC "-//W3C//DTD SVG 1.1//EN" "http://www.w3.org/Graphics/SVG/1.1/DTD/svg11.dtd">
<svg version="1.1" id="圖層_1" xmlns="http://www.w3.org/2000/svg" xmlns:xlink="http://www.w3.org/1999/xlink" x="0px" y="0px"
	 width="400px" height="150px" viewBox="0 0 400 150" enable-background="new 0 0 400 150" xml:space="preserve">
<g>
	<path fill="#FF464A" d="M202.119,106.067c0,12.346-10.008,22.352-22.352,22.352l-148.417,7.625C19.007,136.044,9,126.036,9,113.69
		L3.917,33.884c0-12.345,10.007-22.352,22.352-22.352l144.604,21.599c11.552,1.905,22.352,10.007,22.352,22.352L202.119,106.067z"/>
	<polygon fill="#FF464A" points="185.601,50.283 214.824,62.988 190.917,82.045 	"/>
</g>
<g>
	<path fill="#FF464A" d="M229.033,114.426v-60.23h-21.754V41.104h58.439v13.091h-21.604v60.23H229.033z"/>
	<path fill="#FF464A" d="M291.602,107.705c-1.826,2.821-4.215,4.971-7.168,6.446c-2.953,1.477-6.389,2.216-10.305,2.216
		c-5.242,0-9.283-1.494-12.119-4.48c-2.838-2.986-4.256-7.234-4.256-12.742c0-5.11,1.418-9.01,4.256-11.698
		c2.836-2.688,7.523-4.529,14.061-5.524c1.494-0.232,3.451-0.498,5.875-0.797c6.139-0.797,9.209-2.571,9.209-5.326
		c0-2.19-0.682-3.758-2.041-4.704c-1.361-0.946-3.635-1.418-6.82-1.418c-2.92,0-5.16,0.581-6.719,1.742
		c-1.561,1.162-2.34,2.821-2.34,4.978v0.796h-13.539v-0.995c0-5.542,1.957-9.897,5.873-13.066s9.324-4.754,16.227-4.754
		c7.566,0,13.365,1.312,17.396,3.932c4.033,2.622,6.049,6.405,6.049,11.349v30.762c0,2.258,0.232,3.941,0.697,5.053
		c0.463,1.112,1.244,1.949,2.34,2.514v2.439h-15.084c-0.496-0.93-0.879-1.958-1.145-3.086
		C291.783,110.211,291.635,109,291.602,107.705z M291.352,87.795c-2.355,1.096-5.068,1.975-8.137,2.639
		c-3.07,0.664-4.654,1.012-4.754,1.045c-2.557,0.73-4.34,1.643-5.352,2.737s-1.518,2.605-1.518,4.53c0,1.99,0.646,3.576,1.941,4.754
		c1.293,1.178,3.035,1.767,5.227,1.767c3.914,0,6.992-1.103,9.232-3.311c2.24-2.206,3.359-5.218,3.359-9.034V87.795z"/>
	<path fill="#FF464A" d="M318.381,114.426V41.104h14.486v73.321H318.381z"/>
	<path fill="#FF464A" d="M346.207,114.426V41.104h14.086v38.478l17.223-19.264h17.422l-18.865,20.061l20.01,34.047h-17.371
		L365.77,91.379l-5.477,5.924v17.123H346.207z"/>
</g>
<g>
	<path fill="#FFFFFF" d="M24.197,113.274l-5.381-79.01l51.901,3.757l1.253,13.077l-37.026-2.21l1.343,17.664l32.707,1.418
		l1.22,13.146l-32.9-1.02l2.502,33.198L24.197,113.274z"/>
	<path fill="#FFFFFF" d="M124.267,60.497l6.59,52.922l-14.886-0.021l-0.736-6.376c-1.855,2.594-4.144,4.541-6.87,5.843
		c-2.728,1.309-5.889,1.967-9.477,1.967c-6.237,0-11.073-1.589-14.502-4.782c-3.421-3.211-5.433-8.008-6.044-14.375l-3.645-37.82
		l14.825,0.79l3.459,33.064c0.405,3.896,1.37,6.684,2.893,8.363c1.525,1.676,3.848,2.53,6.967,2.565
		c3.534,0.04,6.234-0.945,8.099-2.952c1.86-1.998,2.588-4.739,2.185-8.23l-3.683-31.749L124.267,60.497z"/>
	<path fill="#FFFFFF" d="M139.844,113.431l-6.811-52.467l14.52,0.774l0.854,6.131c1.726-2.4,3.91-4.147,6.553-5.245
		c2.639-1.089,5.688-1.538,9.149-1.348c6.109,0.334,10.91,2.025,14.406,5.059c3.505,3.016,5.727,7.392,6.659,13.142l5.491,34.023
		l-15.2-0.021l-4.641-30.634c-0.552-3.635-1.622-6.254-3.207-7.863c-1.584-1.612-3.894-2.485-6.931-2.616
		c-3.516-0.151-6.159,0.699-7.933,2.556c-1.778,1.864-2.435,4.48-1.967,7.841l4.258,30.688L139.844,113.431z"/>
</g>
</svg>
